{"title":"24 S09E01 SUB-ESP.1080p-McFly-H264.MP4","uid":10117280,"size":1069936137,"categoryP":"video","categoryS":"hd___tv_shows","magnet":"?xt=urn:btih:4b0297e76f52d6790689d0f5f7459bd6d9cdfd68&amp;dn=24+S09E01+SUB-ESP.1080p-McFly-H264.MP4&amp;tr=udp%3A%2F%2Ftracker.openbittorrent.com%3A80&amp;tr=udp%3A%2F%2Fopen.demonii.com%3A1337&amp;tr=udp%3A%2F%2Ftracker.coppersurfer.tk%3A6969&amp;tr=udp%3A%2F%2Fexodus.desync.com%3A6969","seeders":1,"leechers":0,"uploader":"gunsnik","files":1,"time":1399613637,"description":"General\nUnique ID                                : 244279321378724399240366486518939823873 (0xB7C67C696EFB284F933C35392580AF01)\nComplete name                            : D:BAJADOS2424.S09E01.1080p.h264-McFLY.mkv\nFormat                                   : Matroska\nFormat version                           : Version 4 / Version 2\nFile size                                : 1 020 MiB\nDuration                                 : 43mn 23s\nOverall bit rate                         : 3 287 Kbps\nEncoded date                             : UTC 2014-05-09 00:24:09\nWriting application                      : mkvmerge v6.8.0 ('Theme for Great Cities') 64bit built on Mar  2 2014 21:34:26\nWriting library                          : libebml v1.3.0 + libmatroska v1.4.1\n\nVideo\nID                                       : 1\nFormat                                   : AVC\nFormat/Info                              : Advanced Video Codec\nFormat profile                           : &lt;a class=&quot;__cf_email__&quot; href=&quot;/cdn-cgi/l/email-protection&quot; data-cfemail=&quot;e0a8898788a0acd4ced0&quot;&gt;[email&amp;#160;protected]&lt;/a&gt;&lt;script cf-hash='f9e31' type=&quot;text/javascript&quot;&gt;\n/* &lt;![CDATA[ */!function(){try{var t=&quot;currentScript&quot;in document?document.currentScript:function(){for(var t=document.getElementsByTagName(&quot;script&quot;),e=t.length;e--;)if(t[e].getAttribute(&quot;cf-hash&quot;))return t[e]}();if(t&amp;&amp;t.previousSibling){var e,r,n,i,c=t.previousSibling,a=c.getAttribute(&quot;data-cfemail&quot;);if(a){for(e=&quot;&quot;,r=parseInt(a.substr(0,2),16),n=2;a.length-n;n+=2)i=parseInt(a.substr(n,2),16)^r,e+=String.fromCharCode(i);e=document.createTextNode(e),c.parentNode.replaceChild(e,c)}}}catch(u){}}();/* ]]&gt; */&lt;/script&gt;\nFormat settings, CABAC                   : Yes\nFormat settings, ReFrames                : 4 frames\nCodec ID                                 : V_MPEG4/ISO/AVC\nDuration                                 : 43mn 23s\nBit rate                                 : 2 902 Kbps\nWidth                                    : 44 pixels\nOriginal width                           : 1 920 pixels\nHeight                                   : 462 pixels\nOriginal height                          : 1 080 pixels\nDisplay aspect ratio                     : 1.000\nOriginal display aspect ratio            : 16:9\nFrame rate                               : 29.970 fps\nStandard                                 : Component\nColor space                              : YUV\nChroma subsampling                       : 4:2:0\nBit depth                                : 8 bits\nScan type                                : MBAFF\nBits/(Pixel*Frame)                       : 4.763\nStream size                              : 901 MiB (88%)\nDefault                                  : Yes\nForced                                   : No\nColor primaries                          : BT.709-5, BT.1361, IEC 61966-2-4, SMPTE RP177\nTransfer characteristics                 : BT.709-5, BT.1361\nMatrix coefficients                      : BT.709-5, BT.1361, IEC 61966-2-4 709, SMPTE RP177\n\nAudio\nID                                       : 2\nFormat                                   : MPEG Audio\nFormat version                           : Version 1\nFormat profile                           : Layer 3\nMode                                     : Joint stereo\nCodec ID                                 : A_MPEG/L3\nCodec ID/Hint                            : MP3\nDuration                                 : 43mn 23s\nBit rate mode                            : Constant\nBit rate                                 : 320 Kbps\nChannel(s)                               : 2 channels\nSampling rate                            : 48.0 KHz\nCompression mode                         : Lossy\nStream size                              : 99.3 MiB (10%)\nDefault                                  : Yes\nForced                                   : No\n\n\n\n\nCapturas: &lt;a href=&quot;\nhttp://i55.servimg.com/u/f55/11/56/14/72/24_s0910.jpg&quot; rel=&quot;nofollow&quot; target=&quot;_NEW&quot;&gt;\nhttp://i55.servimg.com/u/f55/11/56/14/72/24_s0910.jpg&lt;/a&gt; &lt;a href=&quot;\nhttp://i55.servimg.com/u/f55/11/56/14/72/24_s0911.jpg&quot; rel=&quot;nofollow&quot; target=&quot;_NEW&quot;&gt;\nhttp://i55.servimg.com/u/f55/11/56/14/72/24_s0911.jpg&lt;/a&gt; &lt;a href=&quot;\nhttp://i55.servimg.com/u/f55/11/56/14/72/24_s0912.jpg&quot; rel=&quot;nofollow&quot; target=&quot;_NEW&quot;&gt;\nhttp://i55.servimg.com/u/f55/11/56/14/72/24_s0912.jpg&lt;/a&gt;","torrent":{"xt":"urn:btih:4b0297e76f52d6790689d0f5f7459bd6d9cdfd68","amp;dn":"24+S09E01+SUB-ESP.1080p-McFly-H264.MP4","amp;tr":["udp%3A%2F%2Ftracker.openbittorrent.com%3A80","udp%3A%2F%2Fopen.demonii.com%3A1337","udp%3A%2F%2Ftracker.coppersurfer.tk%3A6969","udp%3A%2F%2Fexodus.desync.com%3A6969"],"infoHash":"4b0297e76f52d6790689d0f5f7459bd6d9cdfd68","infoHashBuffer":{"type":"Buffer","data":[75,2,151,231,111,82,214,121,6,137,208,245,247,69,155,214,217,205,253,104]},"announce":[],"urlList":[]}}